<svg width="32" height="29" viewBox="0 0 32 29" fill="none" xmlns="http://www.w3.org/2000/svg">
<path d="M19.32 19.481L14.634 15.18C14.282 14.856 13.995 14.983 13.995 15.459V21.641C13.995 22.118 14.27 22.231 14.608 21.895L15.819 20.684L17.153 23.543L18.659 22.84L17.366 20.069H19.091C19.568 20.069 19.672 19.806 19.32 19.481Z" fill="#072643"/>
<path d="M30.92 10.276L27.805 1.102C27.6 0.497 26.907 0 26.268 0H5.719C5.079 0 4.389 0.496 4.182 1.102L1.067 10.276C1.067 11.924 2.404 13.262 4.053 13.262C5.703 13.262 7.039 11.924 7.039 10.276C7.039 11.924 8.377 13.262 10.025 13.262C11.675 13.262 13.011 11.924 13.011 10.276C13.011 11.924 14.349 13.262 15.998 13.262C17.647 13.262 18.985 11.924 18.985 10.276C18.985 11.924 20.322 13.262 21.971 13.262C23.62 13.262 24.957 11.924 24.957 10.276C24.957 11.924 26.294 13.262 27.943 13.262C29.592 13.262 30.929 11.924 30.929 10.276H30.92ZM9.862 7.852H5.21L6.809 2.038H11.098L9.862 7.852ZM15.729 7.852H13.41L13.949 2.038H15.729H18.049L18.588 7.852H15.729ZM22.135 7.852L20.9 2.038H25.188L26.788 7.852H22.135Z" fill="#072643"/>
<path d="M29.402 25.184V13.784C28.953 13.972 28.461 14.077 27.945 14.077C27.765 14.077 27.597 14.04 27.424 14.016V25.184H4.574V14.016C4.402 14.039 4.232 14.077 4.053 14.077C3.537 14.077 3.047 13.972 2.598 13.784V25.184H0C0 26.825 1.33 28.155 2.971 28.155H29.03C30.671 28.155 32.001 26.825 32.001 25.184H29.402ZM18.732 27.063H13.267V26.276H18.732V27.063Z" fill="#072643"/>
</svg>
