<svg xmlns="http://www.w3.org/2000/svg" viewBox="0 0 128 160" x="0px" y="0px"><g><path d="M115.3,26.328c-.012-.034-.016-.068-.029-.1a1.98,1.98,0,0,0-.528-.74A45.885,45.885,0,0,0,77.492,5.312c-.467-.023-1.013-.02-1.329,0A45.739,45.739,0,0,0,31.991,41.127a2,2,0,1,0,3.9.876,41.992,41.992,0,0,1,5.065-12.588,83.646,83.646,0,0,0,12.523,3.517,76.611,76.611,0,0,0-1.588,9.451,2,2,0,0,0,3.978.421,71.764,71.764,0,0,1,1.562-9.156A120.6,120.6,0,0,0,76.79,35.17a120.618,120.618,0,0,0,19.358-1.522A75.255,75.255,0,0,1,98.125,49.21H95.3a2,2,0,0,0,0,4h2.828a74.86,74.86,0,0,1-1.973,15.559c-.829-.135-1.665-.264-2.507-.382a2,2,0,0,0-.551,3.962q1,.139,1.991.3a50.8,50.8,0,0,1-3.025,7.628,2,2,0,1,0,3.578,1.789,55,55,0,0,0,3.412-8.7,81.133,81.133,0,0,1,11.238,3.055A41.88,41.88,0,0,1,93.072,89.837a2,2,0,1,0,1.555,3.686A45.8,45.8,0,0,0,115.3,26.328Zm-5.086-.295A81.545,81.545,0,0,1,99.052,29.06c-2.244-7.444-5.589-13.615-9.663-17.8A42.238,42.238,0,0,1,110.21,26.033ZM43.264,26A41.714,41.714,0,0,1,64.215,11.226c-4.072,4.157-7.44,10.3-9.7,17.832A81.155,81.155,0,0,1,43.264,26ZM76.79,31.17A116.661,116.661,0,0,1,58.5,29.744c3.715-12.024,10.4-20.08,17.8-20.436.165-.009.331-.008.5-.008.15,0,.306,0,.462.007H77.3c7.517.368,14.115,8.53,17.784,20.436A116.674,116.674,0,0,1,76.79,31.17Zm23.3,1.763a83.612,83.612,0,0,0,12.452-3.488,41.539,41.539,0,0,1,6.107,19.765H102.123A78.754,78.754,0,0,0,100.09,32.933Zm0,36.552a79.012,79.012,0,0,0,2.036-16.275h16.522A41.854,41.854,0,0,1,112.609,73,83.643,83.643,0,0,0,100.089,69.485Z"/><path d="M34.729,105.986a8.356,8.356,0,1,0,8.354,8.356A8.365,8.365,0,0,0,34.729,105.986Zm0,12.711a4.356,4.356,0,1,1,4.354-4.355A4.361,4.361,0,0,1,34.729,118.7Z"/><path d="M72.29,105.986a8.356,8.356,0,1,0,8.356,8.356A8.365,8.365,0,0,0,72.29,105.986Zm0,12.711a4.356,4.356,0,1,1,4.356-4.355A4.36,4.36,0,0,1,72.29,118.7Z"/><path d="M80.908,48.16H21.365l-.406-4.433c-.6-6.537-1.366-8.065-7.524-8.065H7.3a2,2,0,1,0,0,4h6.132a11.015,11.015,0,0,1,2.843.207c.346.392.567,2.791.7,4.224l1.2,13.054L20.6,83.642c0,.018.007.034.009.051l.755,8.236c.6,6.534,1.369,8.061,7.525,8.061H78.646a2,2,0,0,0,0-4H28.887a11.063,11.063,0,0,1-2.843-.206c-.346-.392-.566-2.79-.7-4.222l-.56-6.1H77.651c5.692,0,6.389-1.187,7.418-7.242L88.326,59.05c.766-4.507.876-7.126-.65-8.933S83.5,48.16,80.908,48.16Zm3.475,10.22L81.126,77.548a17.585,17.585,0,0,1-.843,3.747,11.093,11.093,0,0,1-2.632.165H24.419L22.3,58.318l-.564-6.158H80.908c2.693,0,3.5.293,3.711.538C85.227,53.417,84.592,57.152,84.383,58.38Z"/><path d="M75.338,58.645a2.006,2.006,0,0,0-2.2,1.778L71.832,72.776a2,2,0,0,0,1.779,2.2c.072.007.142.011.213.011a2,2,0,0,0,1.987-1.79l1.306-12.353A2,2,0,0,0,75.338,58.645Z"/><path d="M60.732,58.635a1.981,1.981,0,0,0-2.069,1.928l-.434,12.354a2,2,0,0,0,1.928,2.068l.072,0a2,2,0,0,0,2-1.93L62.661,60.7A2,2,0,0,0,60.732,58.635Z"/><path d="M46.127,58.635A2,2,0,0,0,44.2,60.7l.436,12.353a2,2,0,0,0,2,1.93l.071,0a2,2,0,0,0,1.929-2.068L48.2,60.563A2.005,2.005,0,0,0,46.127,58.635Z"/><path d="M33.722,60.423a2,2,0,0,0-3.979.421L31.049,73.2a2,2,0,0,0,1.987,1.79c.069,0,.141,0,.212-.011a2,2,0,0,0,1.779-2.2Z"/></g><text x="0" y="143" fill="#000000" font-size="5px" font-weight="bold" font-family="'Helvetica Neue', Helvetica, Arial-Unicode, Arial, Sans-serif">Created by Icon From Us</text><text x="0" y="148" fill="#000000" font-size="5px" font-weight="bold" font-family="'Helvetica Neue', Helvetica, Arial-Unicode, Arial, Sans-serif">from the Noun Project</text></svg>