<svg width="33" height="29" viewBox="0 0 33 29" fill="none" xmlns="http://www.w3.org/2000/svg">
<path d="M19.82 19.903L15.134 15.602C14.782 15.278 14.495 15.405 14.495 15.881V22.063C14.495 22.54 14.77 22.653 15.108 22.317L16.319 21.106L17.653 23.965L19.159 23.262L17.866 20.491H19.591C20.068 20.491 20.172 20.228 19.82 19.903Z" fill="#F1A7A6"/>
<path d="M31.42 10.698L28.305 1.524C28.1 0.919 27.407 0.422 26.768 0.422H6.219C5.579 0.422 4.889 0.918 4.682 1.524L1.567 10.698C1.567 12.346 2.904 13.684 4.553 13.684C6.203 13.684 7.539 12.346 7.539 10.698C7.539 12.346 8.877 13.684 10.525 13.684C12.175 13.684 13.511 12.346 13.511 10.698C13.511 12.346 14.849 13.684 16.498 13.684C18.147 13.684 19.485 12.346 19.485 10.698C19.485 12.346 20.822 13.684 22.471 13.684C24.12 13.684 25.457 12.346 25.457 10.698C25.457 12.346 26.794 13.684 28.443 13.684C30.092 13.684 31.429 12.346 31.429 10.698H31.42ZM10.362 8.274H5.71L7.309 2.46H11.598L10.362 8.274ZM16.229 8.274H13.91L14.449 2.46H16.229H18.549L19.088 8.274H16.229ZM22.635 8.274L21.4 2.46H25.688L27.288 8.274H22.635Z" fill="#F1A7A6"/>
<path d="M29.902 25.606V14.206C29.453 14.394 28.961 14.499 28.445 14.499C28.265 14.499 28.097 14.462 27.924 14.438V25.606H5.074V14.438C4.902 14.461 4.732 14.499 4.553 14.499C4.037 14.499 3.547 14.394 3.098 14.206V25.606H0.5C0.5 27.247 1.83 28.577 3.471 28.577H29.53C31.171 28.577 32.501 27.247 32.501 25.606H29.902ZM19.232 27.485H13.767V26.698H19.232V27.485Z" fill="#F1A7A6"/>
</svg>
