<svg width="118" height="118" viewBox="0 0 118 118" fill="none" xmlns="http://www.w3.org/2000/svg">
<path d="M110 21.0321C109.988 20.9981 109.984 20.9641 109.971 20.9321C109.855 20.6479 109.674 20.3945 109.443 20.1921C105.312 14.0832 99.7698 9.05993 93.2853 5.54781C86.8009 2.03569 79.5655 0.138221 72.192 0.0161446C71.725 -0.00685543 71.179 -0.00385543 70.863 0.0161446C60.5386 0.12404 50.5545 3.72192 42.5345 10.2246C34.5146 16.7272 28.9306 25.752 26.691 35.8311C26.6222 36.0912 26.6066 36.3624 26.6451 36.6286C26.6836 36.8948 26.7753 37.1505 26.9149 37.3805C27.0545 37.6104 27.2391 37.8098 27.4575 37.9667C27.6759 38.1237 27.9238 38.235 28.1862 38.2939C28.4486 38.3529 28.7203 38.3583 28.9848 38.3098C29.2494 38.2613 29.5015 38.16 29.726 38.0119C29.9505 37.8637 30.1428 37.6718 30.2915 37.4477C30.4401 37.2235 30.542 36.9716 30.591 36.7071C31.5858 32.2643 33.2964 28.0128 35.656 24.1191C39.7327 25.6148 43.9197 26.7906 48.179 27.6361C47.453 30.7503 46.9226 33.9068 46.591 37.0871C46.5634 37.3483 46.5874 37.6124 46.6618 37.8643C46.7363 38.1162 46.8596 38.351 47.0247 38.5552C47.3583 38.9677 47.842 39.2308 48.3695 39.2866C48.897 39.3425 49.4251 39.1865 49.8376 38.8529C50.2501 38.5194 50.5132 38.0357 50.569 37.5081C50.8914 34.4256 51.4132 31.3672 52.131 28.3521C58.5326 29.379 65.0066 29.888 71.49 29.8741C77.9731 29.8879 84.4467 29.3789 90.848 28.3521C92.0473 33.4564 92.7099 38.6721 92.825 43.9141H90C89.4696 43.9141 88.9609 44.1249 88.5858 44.4999C88.2107 44.875 88 45.3837 88 45.9141C88 46.4446 88.2107 46.9533 88.5858 47.3284C88.9609 47.7034 89.4696 47.9141 90 47.9141H92.828C92.7169 53.1553 92.0556 58.3702 90.855 63.4731C90.026 63.3381 89.19 63.2091 88.348 63.0911C87.8226 63.0181 87.2897 63.1567 86.8665 63.4766C86.4434 63.7964 86.1646 64.2713 86.0915 64.7966C86.0184 65.322 86.1571 65.8549 86.4769 66.2781C86.7968 66.7013 87.2716 66.9801 87.797 67.0531C88.4637 67.1458 89.1273 67.2458 89.788 67.3531C88.987 69.9732 87.9754 72.5242 86.763 74.9811C86.5258 75.4556 86.4867 76.0049 86.6545 76.5082C86.8222 77.0114 87.183 77.4274 87.6575 77.6646C88.132 77.9019 88.6813 77.9409 89.1845 77.7732C89.6878 77.6054 90.1038 77.2446 90.341 76.7701C91.7231 73.9722 92.8646 71.0617 93.753 68.0701C97.5673 68.818 101.323 69.8389 104.991 71.1251C100.538 77.0406 94.5967 81.6699 87.772 84.5411C87.2832 84.7474 86.8963 85.1393 86.6965 85.6307C86.4967 86.1222 86.5003 86.6728 86.7065 87.1616C86.9127 87.6504 87.3046 88.0373 87.7961 88.2371C88.2875 88.4369 88.8382 88.4334 89.327 88.2271C95.5099 85.632 101.048 81.7109 105.549 76.7408C110.05 71.7708 113.405 65.8729 115.377 59.4639C117.349 53.055 117.889 46.2912 116.96 39.6504C116.031 33.0097 113.655 26.6539 110 21.0321ZM104.914 20.7371C101.27 22.0091 97.5396 23.0206 93.752 23.7641C91.508 16.3201 88.163 10.1491 84.089 5.96415C92.387 8.62295 99.6596 13.783 104.91 20.7371H104.914ZM37.964 20.7041C43.2237 13.7024 50.5537 8.53354 58.915 5.93014C54.843 10.0871 51.475 16.2301 49.215 23.7621C45.3962 23.0139 41.6362 21.9919 37.964 20.7041ZM71.49 25.8741C65.3654 25.8797 59.2498 25.4028 53.2 24.4481C56.915 12.4241 63.6 4.36814 71 4.01214C71.165 4.00314 71.331 4.00415 71.5 4.00415C71.65 4.00415 71.806 4.00415 71.962 4.01115H72C79.517 4.37915 86.115 12.5411 89.784 24.4471C83.7329 25.4023 77.616 25.8795 71.49 25.8741ZM94.79 27.6371C99.0245 26.7977 103.188 25.6315 107.242 24.1491C110.912 30.1171 113.013 36.9162 113.349 43.9141H96.823C96.7138 38.4325 96.0324 32.9773 94.79 27.6371ZM94.79 64.1891C96.0314 58.8495 96.7138 53.3951 96.826 47.9141H113.348C113.023 54.9123 110.947 61.7169 107.309 67.7041C103.233 66.2093 99.0482 65.0341 94.79 64.1891Z" fill="#7C738E"/>
<path d="M29.429 100.69C27.7763 100.69 26.1605 101.179 24.7861 102.097C23.4117 103.015 22.3404 104.32 21.7076 105.847C21.0749 107.374 20.9091 109.054 21.2313 110.675C21.5535 112.296 22.3492 113.785 23.5177 114.954C24.6862 116.123 26.1751 116.919 27.7961 117.241C29.417 117.564 31.0973 117.399 32.6242 116.766C34.1512 116.134 35.4564 115.063 36.3746 113.689C37.2929 112.315 37.783 110.699 37.783 109.046C37.7806 106.831 36.8998 104.707 35.3337 103.141C33.7676 101.574 31.6441 100.693 29.429 100.69ZM29.429 113.401C28.5673 113.402 27.7249 113.146 27.0083 112.668C26.2917 112.189 25.733 111.509 25.4031 110.713C25.0731 109.917 24.9866 109.041 25.1545 108.196C25.3225 107.351 25.7373 106.575 26.3465 105.965C26.9557 105.356 27.732 104.941 28.5771 104.773C29.4222 104.605 30.2981 104.691 31.0942 105.021C31.8903 105.351 32.5706 105.909 33.0492 106.626C33.5278 107.342 33.7832 108.184 33.783 109.046C33.7822 110.201 33.3234 111.308 32.5071 112.125C31.6909 112.942 30.5839 113.402 29.429 113.404V113.401Z" fill="#7C738E"/>
<path d="M66.99 100.69C65.3373 100.69 63.7218 101.18 62.3477 102.098C60.9735 103.017 59.9025 104.322 59.2701 105.848C58.6376 107.375 58.4721 109.055 58.7946 110.676C59.117 112.297 59.9128 113.786 61.0814 114.955C62.25 116.123 63.7389 116.919 65.3598 117.242C66.9807 117.564 68.6608 117.399 70.1877 116.766C71.7146 116.134 73.0196 115.063 73.9378 113.688C74.8559 112.314 75.346 110.699 75.346 109.046C75.3436 106.831 74.4625 104.707 72.896 103.14C71.3294 101.574 69.2054 100.693 66.99 100.69ZM66.99 113.401C66.1284 113.401 65.2862 113.146 64.5698 112.667C63.8535 112.188 63.2952 111.508 62.9655 110.712C62.6358 109.916 62.5496 109.04 62.7178 108.195C62.8859 107.35 63.3009 106.574 63.9102 105.965C64.5195 105.355 65.2958 104.941 66.1408 104.773C66.9858 104.605 67.8617 104.691 68.6577 105.021C69.4536 105.351 70.1338 105.909 70.6124 106.626C71.0909 107.342 71.3462 108.185 71.346 109.046C71.3455 110.201 70.8864 111.309 70.0697 112.126C69.253 112.944 68.1453 113.403 66.99 113.404V113.401Z" fill="#7C738E"/>
<path d="M75.608 42.8642H16.065L15.659 38.4312C15.059 31.8942 14.293 30.3661 8.135 30.3661H2C1.46957 30.3661 0.960859 30.5769 0.585786 30.9519C0.210714 31.327 0 31.8357 0 32.3661C0 32.8966 0.210714 33.4053 0.585786 33.7804C0.960859 34.1554 1.46957 34.3661 2 34.3661H8.132C9.08463 34.3117 10.0403 34.3813 10.975 34.5732C11.321 34.9652 11.542 37.3641 11.675 38.7971L12.875 51.8512L15.3 78.3461C15.3 78.3641 15.307 78.3802 15.309 78.3972L16.064 86.6332C16.664 93.1672 17.433 94.6942 23.589 94.6942H73.346C73.8764 94.6942 74.3851 94.4834 74.7602 94.1084C75.1353 93.7333 75.346 93.2246 75.346 92.6941C75.346 92.1637 75.1353 91.655 74.7602 91.2799C74.3851 90.9049 73.8764 90.6941 73.346 90.6941H23.587C22.6344 90.7484 21.6788 90.6791 20.744 90.4881C20.398 90.0961 20.178 87.6981 20.044 86.2661L19.484 80.1661H72.351C78.043 80.1661 78.74 78.9792 79.769 72.9242L83.026 53.7542C83.792 49.2472 83.902 46.6282 82.376 44.8212C80.85 43.0142 78.2 42.8642 75.608 42.8642ZM79.083 53.0842L75.826 72.2521C75.6826 73.5282 75.4 74.7847 74.983 75.9991C74.1153 76.1586 73.2318 76.214 72.351 76.1642H19.119L17 53.0222L16.436 46.8642H75.608C78.301 46.8642 79.108 47.1572 79.319 47.4022C79.927 48.1212 79.292 51.8562 79.083 53.0842Z" fill="#7C738E"/>
<path d="M70.038 53.3491C69.5108 53.2948 68.9835 53.4512 68.5713 53.7844C68.1591 54.1175 67.8954 54.6003 67.838 55.1271L66.532 67.4801C66.5043 67.7414 66.5283 68.0056 66.6027 68.2576C66.6771 68.5096 66.8005 68.7444 66.9657 68.9487C67.1309 69.153 67.3347 69.3228 67.5656 69.4483C67.7964 69.5738 68.0497 69.6526 68.311 69.6801C68.383 69.6871 68.453 69.6911 68.524 69.6911C69.0177 69.6907 69.4939 69.5076 69.8607 69.1771C70.2275 68.8466 70.4592 68.3921 70.511 67.9011L71.817 55.5481C71.8446 55.2869 71.8205 55.0229 71.746 54.771C71.6715 54.5191 71.5481 54.2844 71.3829 54.0802C71.2177 53.876 71.014 53.7063 70.7832 53.5809C70.5524 53.4555 70.2992 53.3767 70.038 53.3491Z" fill="#7C738E"/>
<path d="M55.432 53.3391C55.1689 53.3274 54.9062 53.3681 54.6591 53.4591C54.412 53.55 54.1855 53.6894 53.9928 53.8689C53.8002 54.0484 53.6453 54.2645 53.5371 54.5046C53.429 54.7447 53.3698 55.0039 53.363 55.2671L52.929 67.6211C52.9106 68.151 53.1034 68.6664 53.4649 69.0542C53.8265 69.442 54.3272 69.6704 54.857 69.6891H54.929C55.4475 69.6895 55.9459 69.4884 56.319 69.1283C56.6922 68.7683 56.9109 68.2774 56.929 67.7591L57.361 55.4041C57.3785 54.8746 57.1853 54.3598 56.8236 53.9727C56.462 53.5855 55.9615 53.3577 55.432 53.3391Z" fill="#7C738E"/>
<path d="M40.827 53.3391C40.2979 53.3582 39.7979 53.5862 39.4367 53.9733C39.0754 54.3604 38.8825 54.875 38.9 55.4041L39.336 67.7571C39.3542 68.2754 39.5729 68.7662 39.946 69.1263C40.3191 69.4864 40.8175 69.6875 41.336 69.6871H41.407C41.937 69.6686 42.438 69.4404 42.7997 69.0526C43.1615 68.6648 43.3544 68.1492 43.336 67.6191L42.9 55.2671C42.8799 54.7369 42.6505 54.2362 42.2619 53.8748C41.8733 53.5134 41.3573 53.3208 40.827 53.3391Z" fill="#7C738E"/>
<path d="M28.422 55.1271C28.3662 54.5995 28.103 54.1156 27.6904 53.782C27.2779 53.4484 26.7496 53.2923 26.222 53.3481C25.6944 53.404 25.2105 53.6671 24.8769 54.0797C24.5432 54.4923 24.3872 55.0205 24.443 55.5481L25.749 67.9041C25.8008 68.3952 26.0325 68.8496 26.3993 69.1801C26.7661 69.5106 27.2423 69.6937 27.736 69.6941C27.805 69.6941 27.877 69.6941 27.948 69.6831C28.2093 69.6556 28.4626 69.5768 28.6934 69.4513C28.9243 69.3258 29.1281 69.1561 29.2933 68.9518C29.4585 68.7474 29.5819 68.5126 29.6563 68.2606C29.7307 68.0086 29.7547 67.7444 29.727 67.4831L28.422 55.1271Z" fill="#7C738E"/>
</svg>
